<?xml version="1.0" encoding="UTF-8" standalone="no"?>
<!-- Created with Inkscape (http://www.inkscape.org/) -->

<svg
   width="51.199833mm"
   height="59.120331mm"
   viewBox="0 0 51.199833 59.120331"
   version="1.1"
   id="svg1"
   inkscape:version="1.3.2 (091e20e, 2023-11-25, custom)"
   sodipodi:docname="hex.svg"
   inkscape:export-filename="hex.png"
   inkscape:export-xdpi="103.25"
   inkscape:export-ydpi="103.25"
   xmlns:inkscape="http://www.inkscape.org/namespaces/inkscape"
   xmlns:sodipodi="http://sodipodi.sourceforge.net/DTD/sodipodi-0.dtd"
   xmlns="http://www.w3.org/2000/svg"
   xmlns:svg="http://www.w3.org/2000/svg">
  <sodipodi:namedview
     id="namedview1"
     pagecolor="#ffffff"
     bordercolor="#666666"
     borderopacity="1.0"
     inkscape:showpageshadow="2"
     inkscape:pageopacity="0.0"
     inkscape:pagecheckerboard="0"
     inkscape:deskcolor="#d1d1d1"
     inkscape:document-units="mm"
     inkscape:zoom="1.0779941"
     inkscape:cx="35.714481"
     inkscape:cy="243.50783"
     inkscape:window-width="1858"
     inkscape:window-height="1057"
     inkscape:window-x="54"
     inkscape:window-y="-8"
     inkscape:window-maximized="1"
     inkscape:current-layer="layer1"
     inkscape:export-bgcolor="#ffffffff" />
  <defs
     id="defs1" />
  <g
     inkscape:label="Layer 1"
     inkscape:groupmode="layer"
     id="layer1"
     transform="translate(-97.102087,-103.71667)">
    <path
       style="fill:#577b46;fill-opacity:1;stroke:none;stroke-width:0.2;paint-order:stroke fill markers"
       d="m 97.102093,118.49682 c 25.599917,14.78006 25.599917,14.78006 25.599917,14.78006 l 25.59976,-14.78015 -25.59976,-14.78006"
       id="path17" />
    <path
       style="fill:#385d49;fill-opacity:1;stroke:none;stroke-width:0.2;paint-order:stroke fill markers"
       d="m 97.102087,118.49682 c 0,29.56012 0,29.56012 0,29.56012 L 122.70201,162.837 v -29.56012"
       id="path15" />
    <path
       style="fill:#7e8416;fill-opacity:1;stroke:none;stroke-width:0.2;paint-order:stroke fill markers"
       d="m 122.70201,162.837 c 0,-29.56012 0,-29.56012 0,-29.56012 l 25.59991,-14.78006 v 29.56012"
       id="path18" />
    <g
       id="g1"
       transform="translate(-1.3415348,-11.057581)">
      <g
         id="g10"
         style="fill:#2e463d;fill-opacity:1;stroke-width:7.45337"
         transform="matrix(0.03549853,-0.02049509,0,0.03549853,123.79779,148.64793)">
        <path
           id="path6"
           style="fill:#2e463d;fill-opacity:1;fill-rule:nonzero;stroke:none;stroke-width:6.18926"
           d="M 62.968095,666.01961 V 649.56868 H 128.83617 V 633.05189 H 62.968095 V 616.60097 H 46.517173 V 583.699 H 62.968095 V 567.2481 H 161.738 v 82.32058 h -16.45091 v 16.45093 z" />
        <path
           id="path7"
           style="fill:#2e463d;fill-opacity:1;fill-rule:nonzero;stroke:none;stroke-width:6.18926"
           d="m 194.63996,666.01961 v -16.45093 h 65.86796 V 633.05189 H 194.63996 V 616.60097 H 178.18904 V 583.699 h 16.45092 v -16.4509 h 98.7699 v 82.32058 h -16.4509 v 16.45093 z" />
        <path
           id="path8"
           style="fill:#2e463d;fill-opacity:1;fill-rule:nonzero;stroke:none;stroke-width:6.18926"
           d="m 326.36278,649.56868 v -16.51679 h -16.50199 v -98.70576 h 32.95291 v 32.90197 h 65.80391 v 16.4509 h 16.45093 v 49.35289 h -16.45093 v 16.51679 z" />
        <path
           id="path9"
           style="fill:#2e463d;fill-opacity:1;fill-rule:nonzero;stroke:none;stroke-width:6.18926"
           d="M 458.03465,649.56868 V 633.05189 H 441.58361 V 583.699 h 16.45104 v -16.4509 h 82.31886 v 16.4509 h 16.45092 v 49.35289 h -16.45092 v 16.51679 z" />
        <path
           id="path10"
           style="fill:#2e463d;fill-opacity:1;fill-rule:nonzero;stroke:none;stroke-width:6.18926"
           d="m 589.7064,666.01961 v -16.45093 h 65.87461 V 633.05189 H 589.7064 V 616.60097 H 573.25547 V 567.2481 h 32.90185 v 49.35287 h 49.42369 V 567.2481 h 32.90182 v 82.32058 h -16.45092 v 16.45093 z" />
      </g>
      <g
         id="g14"
         style="fill:#7e8416;fill-opacity:1;stroke-width:7.45337"
         transform="matrix(0.03549853,-0.02049509,0,0.03549853,123.79779,148.64793)">
        <path
           id="path11"
           style="fill:#7e8416;fill-opacity:1;fill-rule:nonzero;stroke:none;stroke-width:6.18926"
           d="M 79.419137,616.60097 H 128.83629 V 583.699 H 79.419137 Z" />
        <path
           id="path12"
           style="fill:#7e8416;fill-opacity:1;fill-rule:nonzero;stroke:none;stroke-width:6.18926"
           d="m 211.09088,616.60097 h 49.41728 V 583.699 h -49.41728 z" />
        <path
           id="path13"
           style="fill:#7e8416;fill-opacity:1;fill-rule:nonzero;stroke:none;stroke-width:6.18926"
           d="m 342.8137,633.05189 h 49.35287 V 583.699 H 342.8137 Z" />
        <path
           id="path14"
           style="fill:#7e8416;fill-opacity:1;fill-rule:nonzero;stroke:none;stroke-width:6.18926"
           d="m 474.48557,633.05189 h 49.35287 V 583.699 h -49.35287 z" />
      </g>
    </g>
  </g>
</svg>
